<svg width="311" height="113" viewBox="0 0 311 113" fill="none" xmlns="http://www.w3.org/2000/svg">
<path d="M133.121 11.0449C112.358 10.2667 91.4929 9.048 70.7265 10.5596C50.4904 12.0326 31.2173 16.143 15.6111 29.8326C9.34568 35.3287 3.74883 42.2008 2.57756 50.7696C0.948066 62.6906 7.47322 76.0362 15.1952 84.6707C25.2657 95.9314 38.6515 100.82 53.048 104.013C83.6771 110.807 116.026 111.511 147.264 111.466C177.063 111.423 206.956 109.793 236.593 106.682C254.247 104.829 272.197 102.795 288.38 95.0005C295.004 91.8105 303.363 87.397 307.341 80.7884C312.279 72.5858 305.748 63.99 300.617 57.9103C286.108 40.7202 266.088 34.1573 244.635 29.902C211.535 23.3368 177.994 18.9411 144.838 12.5701C128.18 9.36923 110.511 7.04397 94.4365 1.68567" stroke="white" stroke-opacity="0.85" stroke-width="3" stroke-linecap="round"/>
</svg>
