<svg width="291" height="126" viewBox="0 0 291 126" fill="none" xmlns="http://www.w3.org/2000/svg">
<path d="M187.524 18.4209C154.211 21.7268 120.171 27.0316 88.2127 37.174C74.7551 41.445 61.4372 46.4053 48.2801 51.5248C37.3891 55.7625 26.4188 60.4715 17.3254 67.9901C3.63323 79.3109 -6.59524 103.562 14.3443 113.088C31.8206 121.038 52.893 122.667 71.7821 123.799C98.2213 125.383 124.767 123.691 151.058 120.818C184.039 117.213 218.219 112.621 249.919 102.377C262.449 98.3273 295.139 89.4452 287.911 69.7926C283.309 57.2815 268.865 49.641 257.615 44.5574C236.914 35.2035 214.363 30.1803 192.239 25.5616C171.25 21.1801 150.092 17.7217 129.497 11.6268C120.24 8.88704 111.099 5.54493 102.044 2.19824" stroke="white" stroke-opacity="0.85" stroke-width="3" stroke-linecap="round"/>
</svg>
