<svg width="96" height="111" viewBox="0 0 96 111" fill="none" xmlns="http://www.w3.org/2000/svg">
<path d="M81.0907 94.0668C80.0452 94.7562 79.5721 94.9993 78.7838 95.2833C75.9891 96.2868 72.5484 96.3436 69.014 95.4437C64.4565 94.289 59.289 91.5765 54.0961 87.6044C51.3673 85.5186 48.6224 83.1208 46.4325 80.9112C45.2451 79.7082 42.9078 76.7661 42.2041 75.5885C40.7978 73.2228 40.0683 71.3686 39.1432 67.8461C38.1594 64.0552 36.2437 60.7201 31.9608 55.3166C30.7341 53.7725 30.6331 53.6332 30.7104 53.5239C30.7543 53.4698 31.3103 52.7597 31.9468 51.9566C34.2047 49.0983 37.8701 44.3167 41.8214 39.0687L43.4317 36.9267L43.6843 36.9165C44.0827 36.8952 45.1924 37.0524 45.9249 37.233C49.5978 38.1371 55.3407 41.4037 61.8291 46.3017C68.8777 51.613 75.5925 57.8777 78.1152 61.5029C78.5397 62.1102 79.2845 63.1692 79.78 63.8537C87.2716 74.3415 89.4327 82.0939 86.526 88.0856C85.843 89.4987 84.9525 90.7236 83.7216 91.9332C83.2417 92.4109 81.6352 93.7191 81.0907 94.0668Z" fill="#FFA44B"/>
<path d="M23.4052 48.4033C12.8369 44.7852 6.04343 38.1507 5.37274 30.7879C4.93575 26.0621 7.30682 21.9703 11.4774 20.241C13.4114 19.4348 15.4741 19.2033 17.9907 19.5068C23.5077 20.1766 29.6204 23.8055 35.6752 30.0079C36.1413 30.4854 36.5268 30.9222 36.5159 30.9691C36.502 31.0851 35.0121 33.2638 31.4 38.4395C28.2844 42.905 25.9699 46.3032 25.0136 47.8184C24.7234 48.2785 24.4678 48.6728 24.4382 48.6964C24.4087 48.7199 23.9443 48.5843 23.4052 48.4033Z" fill="#FFA44B"/>
</svg>
