<svg width="108" height="57" viewBox="0 0 108 57" fill="none" xmlns="http://www.w3.org/2000/svg">
<path d="M103.978 39.1102C104.051 37.8841 104.024 37.3619 103.874 36.5493C103.338 33.6699 101.651 30.6842 99.0842 28.0716C95.7791 24.7 90.8093 21.5429 84.7298 18.9615C81.5362 17.6042 78.0629 16.3811 75.0336 15.5461C73.3867 15.0956 69.645 14.4813 68.2644 14.4347C65.4944 14.3476 63.5114 14.5998 59.9767 15.4752C56.1787 16.4274 52.3074 16.362 45.4403 15.2421C43.4765 14.9196 43.3042 14.8989 43.248 15.0172C43.2231 15.0806 42.8851 15.8956 42.5068 16.824C41.1566 20.1215 38.8415 25.5418 36.2644 31.4293L35.2113 33.8302L35.3298 34.0522C35.5124 34.4049 36.2091 35.2846 36.736 35.8289C39.3767 38.5586 45.1193 41.9476 52.6589 45.204C60.8411 48.746 69.6853 51.5488 74.1156 51.9985C74.8587 52.0755 76.1568 52.2136 77.003 52.315C89.9173 53.7825 97.7595 51.9636 101.511 46.6216C102.398 45.3639 103.015 44.0171 103.448 42.3847C103.621 41.7455 103.95 39.7434 103.978 39.1102Z" fill="#FFA44B"/>
<path d="M35.6498 11.3746C27.1368 3.96376 17.8989 1.25437 11.1249 4.18511C6.77357 6.06059 4.3982 10.0613 4.99863 14.4911C5.27337 16.5474 6.11548 18.4409 7.65494 20.4717C11.0338 24.9216 17.3002 28.4755 25.7863 30.7525C26.4397 30.9277 27.0166 31.0528 27.0521 31.0209C27.1464 30.9536 28.296 28.6269 30.9902 23.0366C33.3152 18.2142 35.1131 14.593 35.953 13.0439C36.2081 12.5737 36.4234 12.1647 36.429 12.128C36.4346 12.0912 36.0809 11.7544 35.6498 11.3746Z" fill="#FFA44B"/>
</svg>
