<svg width="96" height="110" viewBox="0 0 96 110" fill="none" xmlns="http://www.w3.org/2000/svg">
<path d="M81.1676 93.1878C80.1286 93.8858 79.6578 94.1328 78.8723 94.4233C76.0872 95.4497 72.6477 95.535 69.1057 94.6645C64.5384 93.5477 59.3469 90.8784 54.1186 86.95C51.3711 84.8871 48.6047 82.5124 46.395 80.3214C45.1967 79.1284 42.8329 76.2061 42.1185 75.0346C40.6908 72.6809 39.9444 70.833 38.9871 67.3188C37.9687 63.5367 36.0228 60.2179 31.6911 54.8508C30.4504 53.3171 30.3482 53.1787 30.4245 53.0688C30.4679 53.0143 31.0172 52.2997 31.6463 51.4915C33.8776 48.6149 37.4985 43.8038 41.401 38.5239L42.9914 36.3689L43.2438 36.3566C43.6419 36.3321 44.7529 36.48 45.4869 36.6545C49.1675 37.5282 54.9393 40.7467 61.4714 45.5901C68.5674 50.8421 75.3385 57.0502 77.894 60.6539C78.3241 61.2576 79.0784 62.3103 79.5801 62.9906C87.1666 73.4146 89.3984 81.1478 86.5471 87.1627C85.8771 88.5811 84.9981 89.8132 83.7784 91.0328C83.303 91.5144 81.7088 92.8356 81.1676 93.1878Z" fill="#E15297"/>
<path d="M23.0842 48.0239C12.4834 44.4936 5.62959 37.9158 4.89144 30.5591C4.41114 25.8372 6.74453 21.7261 10.899 19.9624C12.8255 19.1402 14.8859 18.8917 17.4051 19.1743C22.9279 19.7984 29.0734 23.3764 35.1847 29.5282C35.6551 30.0018 36.0447 30.4354 36.0341 30.4824C36.0213 30.5985 34.5515 32.7893 30.9871 37.9946C27.9127 42.4856 25.6294 45.9027 24.6871 47.4257C24.4011 47.8882 24.1492 48.2846 24.1198 48.3084C24.0905 48.3321 23.6249 48.2005 23.0842 48.0239Z" fill="#E15297"/>
</svg>
