<svg width="108" height="85" viewBox="0 0 108 85" fill="none" xmlns="http://www.w3.org/2000/svg">
<path d="M98.3033 17.2024C98.7604 18.3362 98.8998 18.8375 99.0135 19.652C99.4133 22.5395 98.7509 25.8933 97.1318 29.1751C95.0496 33.4079 91.3142 37.968 86.3397 42.3379C83.727 44.6346 80.8055 46.8937 78.1841 48.6453C76.7579 49.5943 73.3882 51.3644 72.0879 51.8476C69.4771 52.8111 67.5086 53.204 63.8651 53.5025C59.9465 53.8124 56.2798 55.1057 50.0931 58.3472C48.3245 59.2762 48.167 59.3506 48.0761 59.2568C48.0323 59.2049 47.4526 58.5435 46.7989 57.7878C44.4702 55.1059 40.5514 50.7281 36.2353 45.9927L34.4732 44.0624L34.5159 43.8151C34.5783 43.4243 34.9637 42.3726 35.2935 41.6914C36.9457 38.2756 41.3439 33.2508 47.4957 27.7796C54.1693 21.8343 61.7071 16.376 65.7847 14.5422C66.4682 14.2331 67.6609 13.6898 68.4348 13.3249C80.2715 7.83162 88.3162 7.05294 93.5788 10.8997C94.8204 11.8046 95.8345 12.8789 96.7624 14.2816C97.1302 14.8295 98.0763 16.6139 98.3033 17.2024Z" fill="#955197"/>
<path d="M42.2266 65.1387C36.4531 74.8424 28.5038 80.3418 21.1213 79.7354C16.3815 79.3525 12.8537 76.3352 12.0269 71.9649C11.6393 69.9375 11.8439 67.8829 12.6698 65.4766C14.4848 60.2021 19.3352 54.8528 26.7046 50.0009C27.272 49.6274 27.7825 49.3256 27.8263 49.3444C27.9375 49.3778 29.7681 51.2065 34.1019 55.6218C37.8411 59.4304 40.6985 62.2736 41.9884 63.4673C42.3801 63.8297 42.7144 64.1469 42.7313 64.1798C42.7483 64.2127 42.5176 64.6431 42.2266 65.1387Z" fill="#955197"/>
</svg>
