<svg width="106" height="94" viewBox="0 0 106 94" fill="none" xmlns="http://www.w3.org/2000/svg">
<path d="M93.7577 77.0646C94.3555 75.9914 94.5575 75.5096 94.7736 74.7133C95.5362 71.8902 95.3018 68.4788 94.1073 65.0264C92.5727 60.5743 89.436 55.6026 85.0434 50.6742C82.7366 48.0842 80.1179 45.4953 77.7335 43.446C76.4357 42.335 73.3097 40.1795 72.0781 39.5463C69.6044 38.2817 67.6972 37.6597 64.1129 36.9346C60.2565 36.1659 56.7748 34.4493 51.0345 30.5C49.3938 29.3687 49.2467 29.2762 49.1444 29.3588C49.0943 29.4052 48.4344 29.9945 47.6889 30.6687C45.0347 33.0606 40.5852 36.9513 35.6955 41.1506L33.6996 42.8622L33.7108 43.1129C33.7234 43.5087 33.9736 44.5995 34.2153 45.3153C35.4257 48.9047 39.1626 54.4163 44.5862 60.5778C50.4687 67.2718 57.2719 73.5834 61.0936 75.8855C61.734 76.2731 62.851 76.9533 63.5742 77.407C74.6466 84.2588 82.5456 85.9786 88.2638 82.7738C89.6126 82.0204 90.7565 81.0717 91.8564 79.7866C92.2913 79.2853 93.4576 77.6229 93.7577 77.0646Z" fill="#FFA44B"/>
<path d="M43.9813 22.6861C39.4718 12.3753 32.2701 5.98217 24.8605 5.71663C20.1041 5.5397 16.219 8.12029 14.8458 12.3613C14.2048 14.3283 14.1486 16.3919 14.6651 18.8776C15.802 24.3266 19.9444 30.2066 26.6518 35.8889C27.1683 36.3263 27.6372 36.6858 27.6831 36.6724C27.7977 36.6522 29.847 35.0521 34.7093 31.1785C38.9044 27.8372 42.1017 25.3507 43.5336 24.3173C43.9685 24.0036 44.3406 23.728 44.3616 23.6973C44.3826 23.6667 44.2078 23.2123 43.9813 22.6861Z" fill="#FFA44B"/>
</svg>
