<svg width="111" height="78" viewBox="0 0 111 78" fill="none" xmlns="http://www.w3.org/2000/svg">
<path d="M104.094 54.9917C103.569 56.091 103.295 56.5299 102.774 57.1582C100.924 59.3831 98.02 61.1203 94.527 62.0902C90.0259 63.3458 84.176 63.5765 77.6343 62.749C74.1975 62.3154 70.581 61.6245 67.538 60.8211C65.8854 60.3813 62.327 59.0276 61.1004 58.3721C58.6426 57.0513 57.0341 55.8332 54.3713 53.2929C51.5157 50.5534 48.1077 48.6586 41.5807 46.1676C39.713 45.4571 39.5529 45.3883 39.5607 45.2575C39.5693 45.1899 39.6657 44.3133 39.7814 43.3182C40.1864 39.7801 40.7688 33.9162 41.3469 27.5154L41.5808 24.9041L41.7908 24.7715C42.1192 24.5579 43.1492 24.1467 43.87 23.9407C47.4834 22.9064 54.1188 22.8642 62.2578 23.8429C71.0945 24.8979 80.1537 26.9273 84.2337 28.7707C84.9188 29.0785 86.1173 29.6132 86.904 29.9518C98.8722 35.1898 104.839 40.719 105.548 47.2393C105.717 48.7758 105.609 50.2541 105.203 51.8866C105.048 52.5282 104.373 54.4288 104.094 54.9917Z" fill="#FFA44B"/>
<path d="M31.0883 45.2513C20.1014 47.3761 10.7367 45.058 6.22821 39.0942C3.32882 35.2695 3.17382 30.6004 5.82273 27.0627C7.04887 25.4185 8.69228 24.2021 11.0104 23.219C16.0946 21.0676 23.2702 21.1521 31.7712 23.4653C32.4256 23.6435 32.9893 23.8266 33.005 23.8721C33.055 23.9781 32.9427 26.5764 32.6137 32.785C32.3305 38.1412 32.1634 42.1894 32.1537 43.957C32.1509 44.4937 32.1426 44.9571 32.1299 44.9917C32.1172 45.0264 31.6469 45.1398 31.0883 45.2513Z" fill="#FFA44B"/>
</svg>
