<svg width="110" height="83" viewBox="0 0 110 83" fill="none" xmlns="http://www.w3.org/2000/svg">
<path d="M102.176 60.0854C101.584 61.1507 101.283 61.5721 100.723 62.1676C98.738 64.2762 95.7296 65.8345 92.1802 66.5916C87.6062 67.573 81.748 67.4503 75.2642 66.2299C71.8576 65.5898 68.2875 64.6822 65.2972 63.697C63.6735 63.1585 60.2023 61.593 59.0175 60.8648C56.6438 59.3986 55.1122 58.086 52.609 55.3906C49.9255 52.4846 46.6381 50.3882 40.2716 47.5088C38.4498 46.6872 38.294 46.6089 38.3099 46.4787C38.3227 46.4119 38.4731 45.543 38.6501 44.5569C39.2733 41.0508 40.2173 35.2346 41.1902 28.8823L41.5851 26.2907L41.8031 26.171C42.1444 25.9777 43.1987 25.6296 43.9314 25.4675C47.6051 24.6533 54.2363 25.0116 62.3066 26.4791C71.069 28.0651 79.9936 30.6366 83.9555 32.7222C84.6209 33.0707 85.7852 33.6766 86.5501 34.062C98.1826 40.0108 103.802 45.8881 104.107 52.4372C104.181 53.9806 103.982 55.4494 103.475 57.0538C103.281 57.6847 102.49 59.5406 102.176 60.0854Z" fill="#DA5297"/>
<path d="M29.8832 45.9179C18.7771 47.3739 9.56553 44.496 5.42976 38.2747C2.76942 34.2844 2.90258 29.6175 5.76683 26.2485C7.09305 24.6824 8.80971 23.5682 11.1859 22.7276C16.3974 20.8886 23.5599 21.4061 31.909 24.227C32.5518 24.4443 33.1036 24.6609 33.1164 24.7073C33.1599 24.8161 32.8874 27.4012 32.1758 33.5745C31.5626 38.9004 31.1459 42.9285 31.0272 44.6911C30.9913 45.2263 30.9545 45.688 30.9396 45.7218C30.9247 45.7557 30.448 45.8404 29.8832 45.9179Z" fill="#DA5297"/>
</svg>
