<svg width="82" height="113" viewBox="0 0 82 113" fill="none" xmlns="http://www.w3.org/2000/svg">
<path d="M65.7012 11.9948C64.5309 11.5182 64.0156 11.3701 63.1822 11.2423C60.2281 10.7927 56.8363 11.3971 53.5511 12.9592C49.3137 14.9679 44.8008 18.624 40.5247 23.5222C38.2773 26.0948 36.079 28.9769 34.3868 31.5676C33.4702 32.9772 31.7855 36.3158 31.3388 37.6076C30.4488 40.2014 30.1174 42.1628 29.9405 45.8006C29.7617 49.7133 28.5728 53.3571 25.488 59.4869C24.6037 61.2391 24.5335 61.3953 24.6321 61.4878C24.6865 61.5325 25.3802 62.1235 26.1725 62.7903C28.9845 65.1649 33.5789 69.1589 38.5511 73.5562L40.5781 75.3514L40.8284 75.313C41.2241 75.2574 42.2817 74.8901 42.9637 74.5722C46.3842 72.9793 51.3471 68.6685 56.7036 62.6122C62.5245 56.0424 67.8194 48.6 69.5444 44.5547C69.8352 43.8767 70.3468 42.6935 70.6914 41.926C75.8719 30.186 76.3842 22.1559 72.2836 16.8276C71.319 15.5705 70.1897 14.5381 68.7291 13.586C68.1584 13.2088 66.3084 12.232 65.7012 11.9948Z" fill="#955197"/>
<path d="M18.318 68.1522C8.70897 73.7255 3.42537 81.534 4.29424 88.8839C4.84555 93.6027 8.01788 97.1617 12.4643 98.0588C14.5272 98.4789 16.5971 98.3108 19.0009 97.5311C24.2698 95.8171 29.5091 91.0869 34.1583 83.8437C34.5162 83.286 34.8036 82.7838 34.7831 82.7399C34.7454 82.6288 32.8334 80.7774 28.22 76.3931C24.2404 72.6102 21.2672 69.7206 20.0158 68.4178C19.636 68.0221 19.3037 67.6843 19.2698 67.6669C19.236 67.6495 18.8089 67.8714 18.318 68.1522Z" fill="#955197"/>
</svg>
