<svg width="107" height="57" viewBox="0 0 107 57" fill="none" xmlns="http://www.w3.org/2000/svg">
<path d="M104.025 33.7711C103.739 34.9638 103.562 35.4536 103.183 36.182C101.837 38.7622 99.3626 41.085 96.1571 42.7771C92.0278 44.9632 86.3734 46.4255 79.8277 46.9923C76.3889 47.2913 72.7223 47.3749 69.5916 47.2268C67.8906 47.143 64.1445 46.5621 62.8145 46.1759C60.1479 45.395 58.3302 44.5359 55.2136 42.5981C51.8681 40.505 48.1577 39.3598 41.2849 38.2865C39.3187 37.9816 39.1485 37.9477 39.1292 37.8173C39.1238 37.749 39.0378 36.866 38.9464 35.8622C38.6151 32.2947 37.9794 26.4008 37.2293 19.9794L36.9213 17.3601L37.0988 17.1852C37.3751 16.9057 38.2946 16.2836 38.9548 15.9286C42.2644 14.1477 48.723 12.7052 56.8567 11.9497C65.6859 11.1222 74.932 11.2066 79.2869 12.1593C80.0178 12.3176 81.2957 12.5907 82.1319 12.7579C94.8718 15.3857 101.822 19.5673 103.851 25.8346C104.331 27.3111 104.529 28.7888 104.468 30.4811C104.449 31.1454 104.182 33.1582 104.025 33.7711Z" fill="#CD5398"/>
<path d="M30.6443 39.4845C20.3822 43.8953 10.79 43.5942 5.1795 38.6819C1.57361 35.5333 0.466843 30.9744 2.32163 26.9357C3.17882 25.0597 4.52986 23.5163 6.58553 22.0597C11.0952 18.8699 18.0988 17.4369 26.8491 17.9157C27.5228 17.9526 28.1091 18.0136 28.1336 18.055C28.2041 18.1488 28.6266 20.7277 29.5773 26.9028C30.3981 32.2299 31.0641 36.2463 31.4166 37.9866C31.5237 38.5149 31.6105 38.9724 31.6052 39.0092C31.5999 39.046 31.1653 39.2569 30.6443 39.4845Z" fill="#CD5398"/>
</svg>
