<svg width="68" height="111" viewBox="0 0 68 111" fill="none" xmlns="http://www.w3.org/2000/svg">
<path d="M46.8308 104.491C47.9978 103.998 48.4689 103.737 49.1536 103.235C51.5782 101.453 53.5874 98.6103 54.8581 95.1612C56.5013 90.717 57.2027 84.9041 56.8758 78.3756C56.7052 74.9457 56.2855 71.3303 55.7051 68.2825C55.3863 66.6271 54.2835 63.0522 53.7099 61.8149C52.5533 59.3357 51.4343 57.7038 49.0457 54.9886C46.4683 52.0765 44.7996 48.637 42.7687 42.0794C42.1899 40.2031 42.1322 40.042 41.9977 40.0463C41.9278 40.0532 41.0228 40.126 39.9949 40.2151C36.3409 40.5253 30.2919 40.951 23.6935 41.3584L21.0018 41.5226L20.8493 41.7281C20.6045 42.0492 20.1017 43.0629 19.8335 43.7744C18.4874 47.3416 17.9166 53.9406 18.2712 62.062C18.6486 70.8793 20.0056 79.9435 21.5682 84.05C21.8289 84.7396 22.2809 85.9457 22.565 86.7371C26.9753 98.7789 32.1609 104.859 38.7792 105.734C40.3386 105.943 41.8606 105.874 43.564 105.513C44.2332 105.375 46.2323 104.755 46.8308 104.491Z" fill="#E15297"/>
<path d="M41.4131 31.0722C44.4359 20.2662 42.8231 10.9484 37.1282 6.33647C33.4766 3.37083 28.7517 3.09625 24.9534 5.6229C23.1885 6.79228 21.8246 8.38527 20.6443 10.6513C18.0603 15.6214 17.5797 22.7171 19.2558 31.181C19.3849 31.8326 19.5262 32.3946 19.5711 32.4112C19.6747 32.4635 22.3198 32.42 28.6448 32.2561C34.1014 32.1154 38.2218 32.0554 40.0159 32.0918C40.5606 32.1029 41.0314 32.1068 41.0676 32.0951C41.1038 32.0834 41.2559 31.6215 41.4131 31.0722Z" fill="#E15297"/>
</svg>
