<svg width="75" height="113" viewBox="0 0 75 113" fill="none" xmlns="http://www.w3.org/2000/svg">
<path d="M57.6428 102.625C56.4315 102.99 55.9041 103.089 55.0622 103.138C52.0782 103.308 48.7612 102.386 45.6439 100.52C41.6225 98.1191 37.4875 94.0505 33.7095 88.7663C31.7237 85.9909 29.8169 82.9116 28.3855 80.1703C27.6108 78.6792 26.2597 75.1933 25.9411 73.8638C25.3085 71.1951 25.17 69.2091 25.3489 65.567C25.5528 61.6508 24.7249 57.9074 22.2528 51.508C21.5437 49.6784 21.489 49.5162 21.5962 49.4332C21.6547 49.3938 22.4028 48.8702 23.2564 48.2803C26.2869 46.1784 31.2494 42.6307 36.6274 38.7165L38.82 37.1182L39.0654 37.1801C39.4538 37.2728 40.4705 37.7384 41.1184 38.1195C44.3673 40.029 48.8863 44.7924 53.6266 51.3325C58.779 58.4282 63.3229 66.3438 64.645 70.5378C64.8684 71.2409 65.2621 72.4683 65.5301 73.2656C69.5408 85.4535 69.2671 93.5045 64.6659 98.4287C63.5831 99.5906 62.3583 100.513 60.8117 101.325C60.2069 101.647 58.2703 102.446 57.6428 102.625Z" fill="#F69959"/>
<path d="M15.8878 42.1917C6.87322 35.7335 2.37874 27.4558 3.95913 20.2146C4.96728 15.5651 8.46943 12.3179 12.9795 11.843C15.0723 11.6187 17.1147 11.9812 19.4297 12.9846C24.5034 15.1886 29.2538 20.3951 33.1724 28.0498C33.474 28.6392 33.7109 29.1667 33.6862 29.2085C33.6379 29.3157 31.5557 30.9801 26.5398 34.9138C22.2129 38.3079 18.9741 40.9068 17.6024 42.087C17.186 42.4454 16.8226 42.7507 16.7873 42.7649C16.7519 42.779 16.3487 42.5177 15.8878 42.1917Z" fill="#F69959"/>
</svg>
