<svg width="107" height="54" viewBox="0 0 107 54" fill="none" xmlns="http://www.w3.org/2000/svg">
<path d="M103.62 17.7239C103.662 18.9534 103.622 19.4755 103.451 20.2849C102.842 23.1531 101.082 26.0966 98.4508 28.6426C95.0633 31.9286 90.0182 34.9548 83.8789 37.3746C80.654 38.647 77.153 39.7774 74.1053 40.5314C72.4486 40.9378 68.6948 41.4516 67.3142 41.4609C64.5447 41.4731 62.5699 41.1669 59.0608 40.1949C55.2904 39.1388 51.4211 39.0994 44.532 40.0348C42.5619 40.3045 42.3893 40.3206 42.3361 40.2006C42.3128 40.1364 41.9958 39.3114 41.6414 38.3717C40.376 35.0339 38.2004 29.5448 35.7749 23.5808L34.7836 21.1487L34.9077 20.9296C35.0989 20.5815 35.8173 19.7196 36.3575 19.189C39.0649 16.5277 44.888 13.2902 52.503 10.2341C60.7674 6.90959 69.6743 4.34302 74.1118 4.01267C74.8562 3.95571 76.1566 3.8526 77.0045 3.77398C89.9439 2.65434 97.7327 4.68762 101.346 10.1372C102.199 11.4203 102.782 12.7854 103.173 14.4313C103.33 15.076 103.608 17.0892 103.62 17.7239Z" fill="#B240A7"/>
<path d="M34.605 43.6606C25.9148 50.8464 16.6196 53.3075 9.92775 50.191C5.62914 48.1961 3.35779 44.128 4.06953 39.711C4.39594 37.6606 5.28492 35.7884 6.87389 33.7978C10.3612 29.436 16.7099 26.0492 25.2434 24.0005C25.9004 23.8428 26.4798 23.7333 26.5144 23.7661C26.6069 23.8361 27.6963 26.1958 30.2459 31.8633C32.4461 36.7525 34.1503 40.4251 34.95 41.9982C35.193 42.4757 35.3976 42.8909 35.4022 42.9278C35.4069 42.9647 35.0452 43.2922 34.605 43.6606Z" fill="#B240A7"/>
</svg>
