<svg width="82" height="111" viewBox="0 0 82 111" fill="none" xmlns="http://www.w3.org/2000/svg">
<path d="M63.0754 101.042C64.1329 100.348 64.5483 100.007 65.1295 99.392C67.1871 97.2085 68.6401 94.0582 69.2547 90.4463C70.0525 85.7911 69.6711 79.9626 68.1458 73.6168C67.3457 70.2827 66.2662 66.8115 65.1332 63.9258C64.5143 62.3592 62.7701 59.0504 61.9776 57.9398C60.3824 55.7155 58.9804 54.3157 56.1293 52.0815C53.0562 49.6879 50.7801 46.6137 47.5728 40.5457C46.6573 38.8091 46.5708 38.6614 46.4392 38.6898C46.3717 38.7091 45.4946 38.9433 44.4995 39.2154C40.9609 40.1766 35.0869 41.6815 28.6689 43.2672L26.0504 43.9121L25.9382 44.141C25.7565 44.5 25.4486 45.5849 25.3159 46.3311C24.6488 50.0724 25.3036 56.6487 27.1497 64.5521C29.1465 73.1341 32.1528 81.7822 34.4475 85.5299C34.8311 86.1595 35.4983 87.2614 35.9237 87.9867C42.4835 99.0071 48.7073 104.04 55.3814 103.709C56.9544 103.633 58.4394 103.292 60.049 102.631C60.6822 102.376 62.535 101.408 63.0754 101.042Z" fill="#F69959"/>
<path d="M44.3365 29.8926C45.3228 18.7446 42.0172 9.89149 35.5578 6.39122C31.4144 4.13855 26.7096 4.71984 23.4338 7.8831C21.9107 9.34838 20.8609 11.1571 20.1158 13.5933C18.4864 18.9357 19.3205 25.9851 22.5311 33.9888C22.7783 34.605 23.021 35.131 23.0684 35.1393C23.1801 35.1719 25.7775 34.653 31.9776 33.3533C37.3265 32.2328 41.3742 31.432 43.1481 31.1447C43.6867 31.0576 44.1512 30.9766 44.1847 30.9586C44.2182 30.9406 44.283 30.4599 44.3365 29.8926Z" fill="#F69959"/>
</svg>
