<svg width="42" height="104" viewBox="0 0 42 104" fill="none" xmlns="http://www.w3.org/2000/svg">
<path d="M22.2957 102.697C21.058 102.562 20.5413 102.447 19.7569 102.163C16.978 101.152 14.3007 98.9957 12.1552 96.0392C9.38497 92.2313 7.12969 86.8282 5.64986 80.4345C4.87129 77.0758 4.27725 73.4654 3.99057 70.3557C3.8382 68.6656 3.90065 64.8949 4.10356 63.5338C4.51701 60.8044 5.12717 58.9034 6.64007 55.5868C8.27727 52.025 8.91145 48.2198 9.03357 41.3007C9.06634 39.3216 9.07671 39.1493 9.20505 39.1142C9.27292 39.1004 10.1479 38.9066 11.1435 38.6924C14.6808 37.9251 20.5126 36.5702 26.8584 35.0372L29.4465 34.4099L29.6469 34.5635C29.9661 34.8019 30.7189 35.6331 31.1672 36.2412C33.4164 39.2896 35.7637 45.4893 37.6538 53.4278C39.7131 62.0443 40.9145 71.1849 40.5632 75.6027C40.5059 76.344 40.4093 77.6395 40.3577 78.4859C39.4901 91.3904 36.2566 98.7697 30.2434 101.546C28.8272 102.202 27.3705 102.581 25.6621 102.729C24.9922 102.792 22.9332 102.776 22.2957 102.697Z" fill="#E15297"/>
<path d="M6.84719 30.7C1.0121 21.1321 -0.0175116 11.6451 4.11723 5.51409C6.76612 1.57471 11.1722 -0.0758954 15.4688 1.25508C17.464 1.86902 19.195 3.01036 20.937 4.85656C24.7529 8.90741 27.1577 15.631 27.8927 24.3105C27.9493 24.9787 27.9696 25.5638 27.9316 25.5931C27.8476 25.674 25.3269 26.4072 19.2828 28.1027C14.0687 29.566 10.1441 30.7157 8.45244 31.2768C7.93889 31.4473 7.49341 31.589 7.45587 31.5883C7.41833 31.5876 7.14709 31.1853 6.84719 30.7Z" fill="#E15297"/>
</svg>
