<svg width="109" height="90" viewBox="0 0 109 90" fill="none" xmlns="http://www.w3.org/2000/svg">
<path d="M100.187 22.4018C99.5105 21.3848 99.1763 20.9876 98.5701 20.4365C96.4196 18.4858 93.2921 17.1623 89.6893 16.6791C85.0459 16.0508 79.2096 16.622 72.8372 18.3357C69.4891 19.235 65.9994 20.4136 63.0945 21.6252C61.5173 22.2866 58.1792 24.1138 57.0553 24.9307C54.8044 26.5747 53.3814 28.001 51.1001 30.8809C48.6557 33.9845 45.5436 36.3269 39.4216 39.6862C37.6696 40.6451 37.5204 40.7352 37.5467 40.8637C37.5649 40.9294 37.7848 41.7844 38.0408 42.7542C38.9445 46.203 40.354 51.931 41.8354 58.1913L42.4377 60.7456L42.6649 60.8483C43.021 61.0149 44.1012 61.2814 44.8454 61.3869C48.5769 61.9174 55.1656 61.0521 63.1013 58.9703C71.7181 56.7175 80.4176 53.4693 84.2037 51.0859C84.8397 50.6874 85.9529 49.994 86.6853 49.5511C97.8156 42.7274 102.951 36.4356 102.729 29.8811C102.679 28.3362 102.362 26.8868 101.728 25.3255C101.483 24.7113 100.544 22.9211 100.187 22.4018Z" fill="#B340A7"/>
<path d="M29.2069 42.1667C18.0102 41.5667 9.05142 45.1407 5.42477 51.6579C3.091 55.8385 3.59842 60.4794 6.72629 63.6174C8.17507 65.0766 9.97709 66.0554 12.4152 66.7111C17.7619 68.1444 24.8659 67.0797 32.9689 63.6286C33.5927 63.3628 34.1258 63.1046 34.1348 63.0574C34.1695 62.9456 33.6902 60.3902 32.4848 54.2924C31.4455 49.0316 30.7065 45.0491 30.4467 43.3016C30.3679 42.771 30.2941 42.3136 30.2765 42.2811C30.259 42.2485 29.7765 42.2006 29.2069 42.1667Z" fill="#B340A7"/>
</svg>
