<svg width="108" height="89" viewBox="0 0 108 89" fill="none" xmlns="http://www.w3.org/2000/svg">
<path d="M97.2164 71.2947C97.7244 70.1809 97.8863 69.6858 98.0366 68.8766C98.566 66.0076 98.0547 62.6278 96.5839 59.2794C94.6929 54.961 91.1641 50.2457 86.3881 45.668C83.8797 43.2622 81.0609 40.8809 78.5194 39.0195C77.1364 38.0107 73.8477 36.0992 72.5696 35.5613C70.0031 34.4881 68.053 34.0122 64.4244 33.5598C60.5212 33.0844 56.9141 31.6369 50.8756 28.1357C49.1495 27.1325 48.9955 27.0515 48.9003 27.1414C48.8542 27.1914 48.2451 27.8279 47.5575 28.5555C45.1091 31.1374 40.9949 35.3471 36.4675 39.8973L34.6192 41.752L34.6508 42.0009C34.6955 42.3941 35.0335 43.4616 35.3325 44.1563C36.8304 47.6399 41.0009 52.8477 46.9042 58.5759C53.3078 64.7999 60.5972 70.5737 64.5907 72.5788C65.26 72.9166 66.4278 73.51 67.185 73.9074C78.77 79.8979 86.7766 81.0162 92.2102 77.394C93.492 76.5422 94.554 75.5113 95.5447 74.1487C95.937 73.6167 96.963 71.8733 97.2164 71.2947Z" fill="#E15297"/>
<path d="M43.2945 20.9706C37.9606 11.0325 30.2634 5.20257 22.8583 5.49619C18.1042 5.67824 14.4431 8.5433 13.4204 12.8742C12.9419 14.8832 13.0541 16.9444 13.7713 19.3832C15.3482 24.7292 19.9552 30.2782 27.102 35.4368C27.6522 35.8339 28.1488 36.157 28.1934 36.1401C28.3061 36.1114 30.2177 34.3619 34.7472 30.1344C38.6552 26.4878 41.6386 23.7682 42.9813 22.6302C43.389 22.2848 43.7374 21.982 43.7558 21.9499C43.7742 21.9178 43.5631 21.478 43.2945 20.9706Z" fill="#E15297"/>
</svg>
