<svg width="105" height="48" viewBox="0 0 105 48" fill="none" xmlns="http://www.w3.org/2000/svg">
<path d="M103.308 29.4484C103.267 28.2128 103.192 27.6924 102.967 26.8933C102.169 24.0622 100.218 21.2395 97.4276 18.8785C93.8338 15.8308 88.6067 13.1642 82.3308 11.1851C79.0339 10.1443 75.4716 9.26581 72.3861 8.73174C70.709 8.44489 66.9364 8.20305 65.561 8.29423C62.8021 8.48355 60.8561 8.93422 57.4268 10.1641C53.7429 11.4973 49.8923 11.8184 42.9693 11.3821C40.9892 11.2552 40.8163 11.2515 40.7714 11.3757C40.7525 11.4418 40.4921 12.2919 40.2022 13.2598C39.1659 16.6981 37.3676 22.3594 35.3521 28.5149L34.5281 31.0253L34.6664 31.2359C34.8802 31.5709 35.6534 32.3827 36.2269 32.8754C39.1015 35.3463 45.1175 38.1681 52.9058 40.6776C61.3587 43.409 70.4007 45.3337 74.8419 45.3419C75.587 45.3449 76.8888 45.3536 77.7385 45.3707C90.6991 45.5513 98.3192 42.946 101.552 37.2198C102.315 35.8713 102.804 34.4604 103.083 32.7819C103.197 32.1241 103.338 30.0856 103.308 29.4484Z" fill="#DA5297"/>
<path d="M32.7 8.3995C23.5728 1.83861 14.1597 0.0515297 7.71011 3.65858C3.56661 5.96847 1.57888 10.2063 2.58254 14.5761C3.04449 16.605 4.05425 18.4144 5.76839 20.2915C9.52994 24.404 16.0733 27.3323 24.7009 28.762C25.3651 28.872 25.9489 28.9394 25.9812 28.904C26.0685 28.8273 26.9945 26.3858 29.1521 20.5266C31.0142 15.4721 32.464 11.6715 33.1545 10.0385C33.3643 9.54282 33.5401 9.11233 33.5422 9.07503C33.5444 9.03773 33.1626 8.73618 32.7 8.3995Z" fill="#DA5297"/>
</svg>
