<svg width="108" height="61" viewBox="0 0 108 61" fill="none" xmlns="http://www.w3.org/2000/svg">
<path d="M104.225 23.2038C103.899 22.0242 103.705 21.5419 103.301 20.8289C101.867 18.3031 99.3143 16.0747 96.051 14.5017C91.847 12.4691 86.1423 11.2134 79.5764 10.883C76.127 10.7083 72.457 10.7565 69.3308 11.0167C67.6324 11.1615 63.9055 11.8755 62.5883 12.3086C59.9479 13.1834 58.159 14.1058 55.1075 16.1508C51.8325 18.3592 48.1603 19.6349 41.3228 20.9525C39.3667 21.3273 39.1976 21.3672 39.1828 21.498C39.1797 21.5664 39.1236 22.4504 39.0661 23.4551C38.8557 27.0261 38.4195 32.9288 37.8868 39.3619L37.6675 41.986L37.8509 42.1542C38.1367 42.4231 39.0775 43.0107 39.7498 43.3411C43.1202 44.9989 49.6287 46.2061 57.7891 46.6676C66.6477 47.176 75.8923 46.7598 80.2155 45.6529C80.9412 45.4687 82.21 45.1504 83.0407 44.9536C95.6935 41.8744 102.503 37.453 104.32 31.1277C104.75 29.6376 104.898 28.1562 104.78 26.4701C104.738 25.8081 104.403 23.8097 104.225 23.2038Z" fill="#CD5398"/>
<path d="M30.6843 20.0799C20.2682 16.0472 10.6817 16.6928 5.23476 21.7974C1.73369 25.0696 0.780635 29.6594 2.77292 33.6233C3.69398 35.4648 5.09786 36.9565 7.20377 38.3362C11.8235 41.3575 18.8788 42.5355 27.617 41.7428C28.2898 41.6817 28.8743 41.5997 28.8974 41.5575C28.9647 41.4614 29.3003 38.8724 30.0425 32.6753C30.6835 27.329 31.2139 23.2966 31.5077 21.5471C31.597 21.0159 31.6683 20.5562 31.6618 20.5197C31.6553 20.4832 31.2133 20.2883 30.6843 20.0799Z" fill="#CD5398"/>
</svg>
