<svg width="35" height="64" viewBox="0 0 35 64" fill="none" xmlns="http://www.w3.org/2000/svg">
<path d="M12.1436 59.8187C11.5416 59.5363 11.2975 59.3868 10.9405 59.0999C9.67633 58.0816 8.60455 56.4583 7.89754 54.4903C6.9835 51.9544 6.52409 48.639 6.57479 44.9166C6.60084 42.9609 6.75024 40.8997 6.99139 39.1623C7.12416 38.2187 7.62157 36.1812 7.89127 35.4763C8.4354 34.0637 8.97544 33.1342 10.1418 31.5884C11.4006 29.9303 12.188 27.9707 13.1045 24.2334C13.3656 23.164 13.3921 23.0722 13.4606 23.0748C13.4962 23.0788 13.9575 23.1212 14.4817 23.173C16.3449 23.3536 19.4277 23.6024 22.7894 23.8413L24.1608 23.9377L24.242 24.055C24.3721 24.2383 24.6456 24.8169 24.7946 25.2229C25.5421 27.2583 25.949 31.0219 25.9124 35.6526C25.8766 40.6802 25.347 45.8475 24.6253 48.1876C24.5049 48.5806 24.2965 49.2679 24.166 49.7189C22.1369 56.5811 19.6082 60.043 16.259 60.5356C15.4699 60.6529 14.6949 60.6123 13.8225 60.4045C13.4799 60.3254 12.4525 59.9694 12.1436 59.8187Z" fill="#F69959"/>
<path d="M14.0385 17.7346C12.3219 11.5978 12.973 6.3104 15.7687 3.69822C17.5612 2.01849 19.943 1.86734 21.906 3.30533C22.8181 3.97086 23.535 4.87644 24.171 6.16387C25.5634 8.98765 25.9308 13.0158 25.2327 17.8185C25.179 18.1882 25.1175 18.5071 25.095 18.5165C25.0436 18.546 23.7068 18.5187 20.509 18.4194C17.7502 18.3341 15.6678 18.2959 14.7622 18.3147C14.4873 18.3205 14.2495 18.3223 14.231 18.3156C14.2125 18.3089 14.1275 18.0465 14.0385 17.7346Z" fill="#F69959"/>
</svg>
