<svg width="26" height="61" viewBox="0 0 26 61" fill="none" xmlns="http://www.w3.org/2000/svg">
<path d="M13.8682 59.4207C14.4913 59.2937 14.7498 59.2077 15.1394 59.0142C16.5195 58.327 17.8178 56.9929 18.8256 55.2254C20.1271 52.9488 21.1256 49.7862 21.7052 46.092C22.0103 44.1513 22.2153 42.075 22.2779 40.2958C22.3103 39.3289 22.1787 37.1881 22.0398 36.4227C21.7581 34.8879 21.3988 33.8321 20.5449 32.0081C19.6216 30.0499 19.1996 27.9126 18.9543 23.9846C18.8852 22.8609 18.8754 22.7634 18.8095 22.7487C18.7747 22.7436 18.3266 22.6688 17.8169 22.5874C16.0057 22.2945 13.0173 21.7605 9.76394 21.1461L8.437 20.8944L8.33964 20.9899C8.18435 21.1383 7.82528 21.6412 7.61441 22.0051C6.55655 23.8289 5.5326 27.448 4.78621 32.037C3.97216 37.0181 3.60636 42.2625 3.90134 44.7594C3.95005 45.1785 4.03332 45.911 4.08189 46.39C4.86334 53.69 6.6961 57.7536 9.81401 59.0883C10.5484 59.404 11.2959 59.5599 12.1648 59.5752C12.5056 59.5836 13.5476 59.4915 13.8682 59.4207Z" fill="#FFA44B"/>
<path d="M19.495 17.7358C22.1822 12.0773 22.4506 6.65878 20.2059 3.35094C18.7675 1.22522 16.5042 0.467686 14.3748 1.3956C13.3859 1.82416 12.5439 2.54096 11.715 3.65769C9.8995 6.10773 8.86541 10.0156 8.72409 14.9645C8.71324 15.3455 8.71842 15.678 8.73835 15.6931C8.78278 15.7355 10.072 16.0493 13.1617 16.766C15.827 17.3848 17.8345 17.8779 18.7015 18.1276C18.9648 18.2034 19.1929 18.2658 19.2118 18.2639C19.2307 18.2619 19.3567 18.023 19.495 17.7358Z" fill="#FFA44B"/>
</svg>
