<svg width="33" height="57" viewBox="0 0 33 57" fill="none" xmlns="http://www.w3.org/2000/svg">
<path d="M10.1436 52.5747C9.5416 52.328 9.29748 52.1975 8.94052 51.9468C7.67633 51.0573 6.60455 49.6394 5.89754 47.9204C4.9835 45.7053 4.52409 42.8094 4.57479 39.5579C4.60084 37.8496 4.75024 36.0492 4.99139 34.5316C5.12416 33.7073 5.62157 31.9277 5.89127 31.3119C6.4354 30.078 6.97544 29.2661 8.14177 27.9158C9.40056 26.4675 10.188 24.7558 11.1045 21.4913C11.3656 20.5573 11.3921 20.4771 11.4606 20.4793C11.4962 20.4828 11.9575 20.5199 12.4817 20.5651C14.3449 20.7229 17.4277 20.9402 20.7894 21.1489L22.1608 21.233L22.242 21.3355C22.3721 21.4956 22.6456 22.001 22.7946 22.3557C23.5421 24.1336 23.949 27.421 23.9124 31.4659C23.8765 35.8574 23.347 40.371 22.6253 42.4151C22.5049 42.7583 22.2965 43.3587 22.166 43.7526C20.1369 49.7467 17.6082 52.7706 14.259 53.2009C13.4699 53.3033 12.6949 53.2679 11.8225 53.0864C11.4799 53.0173 10.4525 52.7063 10.1436 52.5747Z" fill="#FFA44B"/>
<path d="M12.0385 15.8148C10.3219 10.4544 10.973 5.83586 13.7687 3.55415C15.5612 2.08693 17.943 1.9549 19.906 3.21096C20.8181 3.79229 21.535 4.58331 22.171 5.70786C23.5634 8.1744 23.9308 11.6929 23.2327 15.888C23.179 16.211 23.1174 16.4895 23.095 16.4977C23.0436 16.5235 21.7068 16.4997 18.5089 16.4129C15.7502 16.3384 13.6678 16.305 12.7622 16.3215C12.4873 16.3266 12.2495 16.3281 12.231 16.3222C12.2125 16.3164 12.1275 16.0872 12.0385 15.8148Z" fill="#FFA44B"/>
</svg>
