<svg width="32" height="32" viewBox="0 0 32 32" fill="none" xmlns="http://www.w3.org/2000/svg">
<path d="M27.6129 4.87267C27.6129 4.87267 30.2031 3.86267 29.9872 6.31553C29.9153 7.32554 29.2677 10.8605 28.7641 14.6841L27.0373 26.0106C27.0373 26.0106 26.8934 27.6699 25.5983 27.9585C24.3031 28.247 22.3605 26.9485 22.0007 26.6599C21.7129 26.4435 16.6045 23.197 14.8057 21.6099C14.3021 21.177 13.7265 20.3113 14.8777 19.3013L22.4325 12.087C23.2959 11.2213 24.1593 9.20127 20.5617 11.6541L10.4887 18.5077C10.4887 18.5077 9.33753 19.2291 7.17907 18.5799L2.50228 17.137C2.50228 17.137 0.775474 16.0549 3.72543 14.9727C10.9205 11.5819 19.7703 8.11907 27.6129 4.87267Z" fill="white" fill-opacity="0.85"/>
</svg>
