<svg width="32" height="32" viewBox="0 0 32 32" fill="none" xmlns="http://www.w3.org/2000/svg">
<path d="M3.33325 23.8415C4.61916 24.5524 13.9275 29.9182 20.5465 25.7827C27.1655 21.6471 26.8003 14.5222 26.8003 11.2573C27.3999 10.0012 28.6666 9.3626 28.6666 5.96254C27.4224 7.11187 26.1857 7.50294 24.9566 7.13574C23.7524 5.29972 22.0956 4.48765 19.9862 4.69956C16.8221 5.01743 15.6645 8.12167 16.0052 12.1378C11.1265 14.6049 7.30092 10.3493 5.32937 7.13574C4.67063 9.6666 4.03545 12.7051 5.32937 16.0663C6.19199 18.3071 8.26559 20.2016 11.5502 21.7497C8.22145 23.5539 5.48247 24.2511 3.33325 23.8415Z" stroke="white" stroke-opacity="0.85" stroke-width="2" stroke-linejoin="round"/>
</svg>
